# xmcd
#
# Track frame offsets:
#	150
#	12343
#	27210
#	42360
#	62785
#	76948
#	96148
#	113130
#	129365
#	154875
#	174045
#	188633
#	198765
#	222880
#	238470
#
# Disc length: 3445 seconds
#
# Revision: 1
# Processed by: cddbd v1.5.1PL2 Copyright (c) Steve Scherf et al.
# Submitted via: audiograbber 1.83.01
#
DISCID=be0d730f
DTITLE=Emmit Powell and the Gospel Elites - The Best Of 
DYEAR=1992
DGENRE=Gospel
TTITLE0=Jesus, The Lord Won't Fail
TTITLE1=I Found It
TTITLE2=When We Gather Home
TTITLE3=Right Road Now
TTITLE4=Wait On The Lord
TTITLE5=Happiness Is Knowing Jesus
TTITLE6=Right Choice
TTITLE7=Do You Know Him
TTITLE8=If GOD Didn't Care
TTITLE9=Please Forgive
TTITLE10=I'd Rather Be Saved
TTITLE11=Call Him Up, Jesus
TTITLE12=The Next Time Jesus Comes
TTITLE13=Keep The Lord Before You
TTITLE14=Blessing From Heaven
EXTD=
EXTT0=
EXTT1=
EXTT2=
EXTT3=
EXTT4=
EXTT5=
EXTT6=
EXTT7=
EXTT8=
EXTT9=
EXTT10=
EXTT11=
EXTT12=
EXTT13=
EXTT14=
PLAYORDER=
